<svg xmlns="http://www.w3.org/2000/svg" xml:space="preserve" style="fill-rule:evenodd;clip-rule:evenodd;stroke-linejoin:round;stroke-miterlimit:2" viewBox="0 0 1118 286"><path d="M367.791 319.053c.922-.54 4.482-9.974 6.143-11.742 1.315-1.4 9.411 3.451 8.271 5.295-2.228 3.603-5.785 13.038-5.949 17.169-.065 1.638 6.097 7.866 20.371 15.829.572.319.041.843-.269 1.496-.407.858-1.673 3.161-2.02 2.999-17.463-8.153-20.229-13.819-21.305-12.913-1.372 1.153-3.411 10.661-4.356 16.632-.663 4.195-12.977 6.075-11.349-.485 2.66-10.72 4.103-18.42 7.289-26.664.619-1.603-5.393 1.831-19.355 2.213-.66.018-1.149-4.765-.517-4.797 11.494-.579 20.818-3.726 23.046-5.032Z" style="fill:url(#a)" transform="rotate(6.279 3091.105 -1357.797)"/><path d="M343.104 361.395c-2.891.523 5.635-7.025 9.035-7.583 9.374-1.537 16.926-.296 22.707 1.07 3.97.938 13.148 8.729 9.148 7.929-21.618-4.321-28.586-3.638-40.89-1.416Z" style="fill:#92d53c" transform="matrix(.994 .10936 -.12692 1.15358 -123.748 -402.53)"/><path d="M487.592 508.382c-.171.358-.889.426-1.056.351-.477-.21-.782-.744-2.175-2.891-7.619-11.74-12.143-45.298-35.277-89.114-11.911-22.56-52.139-61.686-54.189-68.2-.333-1.058 1.116-3.454 2.685-3.508 94.027-3.181 112.364 116.799 90.012 163.362Z" style="fill:url(#b)" transform="matrix(.08379 -1.20607 1.05441 .07325 -397.104 565.842)"/><path d="M487.592 508.382c-.171.358-.889.426-1.056.351-.477-.21-.782-.744-2.175-2.891-7.619-11.74-12.143-45.298-35.277-89.114-11.911-22.56-51.793-61.633-53.843-68.148-.333-1.058.01-2.41.906-2.487 93.806-8.035 113.797 115.726 91.445 162.289Z" style="fill:url(#c)" transform="matrix(.08379 -1.20607 1.05441 .07325 -397.104 565.842)"/><path d="M395.873 346.955c15.65 14.429 38.308 28.126 77.559 116.062 5.461 12.236 13.888 45.588 13.635 45.703-.068.031-.417.081-.551.006-17.586-9.803-47.899-40.527-60.142-57.434-20.823-28.758-33.818-100.476-31.277-104.126" style="fill:url(#d)" transform="matrix(.08379 -1.20607 1.05441 .07325 -397.104 565.842)"/><path d="M376.663 377.874c43.134.13 83.837 46.274 83.837 101.865 0 48.358-31.063 88.425-68.299 98.124-5.569 1.451-5.214 3.326-11.599 3.995-4.188.438-8.002-2.212-12.04-2.956-39.648-7.297-72.547-50.42-72.547-100.873 0-55.592 35.142-100.293 80.648-100.155Z" style="fill:url(#e)" transform="matrix(1.30388 .14345 -.12622 1.14723 -253.422 -436.584)"/><path d="M487.592 508.382c-.057.429-.889.426-1.056.351-.477-.21-.782-.744-2.175-2.891-7.619-11.74-12.143-45.298-35.277-89.114-11.911-22.56-40.012-53.572-54.083-68.117-.655-.678.028-6.884 9.35-6.324 85.54 5.135 90.831 109.275 83.241 166.095Z" style="fill:url(#f)" transform="matrix(.2082 -1.31092 -.86154 -.13683 558.619 749.374)"/><path d="M396.319 346.337c31.154 29.184 48.393 47.457 68.986 96 13.628 32.126 22.015 66.268 21.762 66.383-.068.031-.417.081-.551.006-17.586-9.803-32.376-16.341-60.142-57.434-27.876-41.257-34.093-100.058-31.256-104.416" style="fill:url(#g)" transform="matrix(.2082 -1.31092 -.86154 -.13683 558.619 749.374)"/><path d="M584.934 242.977V95.286h26.469v125.401h65.254v22.29h-91.723ZM698.55 242.977V132.159h25.772v110.818H698.55Zm12.886-126.479c-4.097 0-7.616-1.387-10.556-4.163-2.941-2.775-4.411-6.079-4.411-9.912 0-3.965 1.47-7.318 4.411-10.061 2.94-2.742 6.459-4.113 10.556-4.113 4.163 0 7.715 1.371 10.656 4.113 2.94 2.743 4.41 6.063 4.41 9.962s-1.47 7.236-4.41 10.011c-2.941 2.776-6.493 4.163-10.656 4.163ZM751.624 242.977V132.159h24.196l.992 26.636h-1.887c1.615-6.56 4.088-11.926 7.418-16.095 3.33-4.17 7.228-7.264 11.694-9.282a33.66 33.66 0 0 1 14.015-3.027c7.989 0 14.449 2.513 19.379 7.541 4.929 5.027 8.407 12.404 10.431 22.132h-3.092c1.536-6.598 4.138-12.097 7.807-16.496 3.668-4.4 8.033-7.696 13.094-9.888 5.061-2.193 10.46-3.289 16.198-3.289 6.648 0 12.627 1.447 17.938 4.342 5.31 2.894 9.51 7.144 12.602 12.749 3.091 5.605 4.637 12.524 4.637 20.757v74.738h-25.764v-70.78c0-6.854-1.878-11.875-5.634-15.061-3.757-3.187-8.275-4.781-13.557-4.781-4.146 0-7.735.893-10.765 2.677-3.031 1.785-5.36 4.251-6.988 7.397-1.628 3.147-2.443 6.804-2.443 10.973v69.575h-25.121v-71.923c0-5.67-1.751-10.204-5.253-13.602-3.502-3.398-8-5.097-13.493-5.097-3.748 0-7.195.871-10.34 2.614-3.146 1.742-5.649 4.293-7.51 7.651-1.861 3.358-2.792 7.502-2.792 12.431v67.926h-25.762ZM983.312 245.213c-11.108 0-20.688-2.337-28.738-7.012-8.05-4.675-14.238-11.274-18.566-19.799-4.327-8.524-6.491-18.576-6.491-30.156 0-11.389 2.138-21.394 6.414-30.015 4.276-8.621 10.324-15.353 18.145-20.196 7.822-4.842 17.004-7.263 27.548-7.263 6.785 0 13.226 1.093 19.326 3.281 6.09 2.187 11.5 5.552 16.22 10.094 4.72 4.542 8.43 10.336 11.13 17.383 2.71 7.047 4.06 15.442 4.06 25.186v8.04h-90.678v-17.492h77.818l-12.04 5.193c0-6.269-.97-11.765-2.9-16.487-1.94-4.722-4.807-8.401-8.611-11.034-3.804-2.634-8.531-3.951-14.182-3.951s-10.463 1.338-14.436 4.014c-3.973 2.676-7.001 6.249-9.084 10.717-2.082 4.468-3.124 9.435-3.124 14.901v12.118c0 7.004 1.189 12.913 3.566 17.725 2.378 4.812 5.717 8.438 10.017 10.879 4.3 2.441 9.286 3.661 14.956 3.661 3.767 0 7.191-.538 10.271-1.615 3.081-1.077 5.731-2.685 7.947-4.825 2.23-2.14 3.92-4.784 5.1-7.932l23.67 4.9c-1.77 5.932-4.81 11.125-9.12 15.581-4.31 4.455-9.69 7.919-16.14 10.393-6.454 2.474-13.812 3.711-22.078 3.711ZM1105.68 132.159v20.189h-62.93v-20.189h62.93Zm-47.2-26.366h25.76v105.976c0 4.005.86 6.945 2.58 8.82 1.72 1.875 4.55 2.813 8.51 2.813 1.15 0 2.69-.138 4.63-.414 1.94-.277 3.51-.547 4.7-.811l4.06 19.884a49.83 49.83 0 0 1-8.67 1.861 69.66 69.66 0 0 1-8.57.549c-10.61 0-18.76-2.64-24.45-7.922-5.7-5.281-8.55-12.805-8.55-22.571V105.793ZM1177.38 132.159v20.189h-62.93v-20.189h62.93Zm-47.21-26.366h25.76v105.976c0 4.005.86 6.945 2.58 8.82 1.72 1.875 4.56 2.813 8.51 2.813 1.15 0 2.69-.138 4.63-.414 1.94-.277 3.51-.547 4.7-.811l4.06 19.884a49.918 49.918 0 0 1-8.66 1.861c-2.96.366-5.82.549-8.58.549-10.6 0-18.76-2.64-24.45-7.922-5.7-5.281-8.55-12.805-8.55-22.571V105.793ZM1244.78 245.213c-11.11 0-20.69-2.337-28.74-7.012-8.05-4.675-14.24-11.274-18.57-19.799-4.32-8.524-6.49-18.576-6.49-30.156 0-11.389 2.14-21.394 6.42-30.015 4.27-8.621 10.32-15.353 18.14-20.196 7.82-4.842 17.01-7.263 27.55-7.263 6.78 0 13.23 1.093 19.32 3.281 6.1 2.187 11.51 5.552 16.22 10.094 4.72 4.542 8.43 10.336 11.14 17.383 2.7 7.047 4.05 15.442 4.05 25.186v8.04h-90.67v-17.492h77.81l-12.04 5.193c0-6.269-.96-11.765-2.9-16.487-1.93-4.722-4.8-8.401-8.61-11.034-3.8-2.634-8.53-3.951-14.18-3.951s-10.46 1.338-14.43 4.014c-3.98 2.676-7 6.249-9.09 10.717-2.08 4.468-3.12 9.435-3.12 14.901v12.118c0 7.004 1.19 12.913 3.56 17.725 2.38 4.812 5.72 8.438 10.02 10.879 4.3 2.441 9.29 3.661 14.96 3.661 3.76 0 7.19-.538 10.27-1.615 3.08-1.077 5.73-2.685 7.95-4.825 2.22-2.14 3.92-4.784 5.09-7.932l23.67 4.9c-1.76 5.932-4.8 11.125-9.11 15.581-4.32 4.455-9.7 7.919-16.15 10.393-6.45 2.474-13.81 3.711-22.07 3.711Z" style="fill:#6db50f;fill-rule:nonzero" transform="translate(-176.289 -24.538)"/><defs><linearGradient id="b" x1="0" x2="1" y1="0" y2="-.037" gradientTransform="matrix(112.652 -22.9876 37.1603 182.107 395.708 410.882)" gradientUnits="userSpaceOnUse"><stop offset="0" style="stop-color:#7cd129;stop-opacity:1"/><stop offset="1" style="stop-color:#579f27;stop-opacity:1"/></linearGradient><linearGradient id="c" x1="0" x2="1" y1="0" y2="-.037" gradientTransform="matrix(112.652 -22.9876 37.1603 182.107 395.708 410.882)" gradientUnits="userSpaceOnUse"><stop offset="0" style="stop-color:#7cd129;stop-opacity:1"/><stop offset="1" style="stop-color:#579f27;stop-opacity:1"/></linearGradient><linearGradient id="d" x1="0" x2="1" y1="0" y2="-.073" gradientTransform="matrix(-52.4462 34.2593 -60.3905 -92.4495 446.422 408.727)" gradientUnits="userSpaceOnUse"><stop offset="0" style="stop-color:#7ed429;stop-opacity:1"/><stop offset="1" style="stop-color:#529426;stop-opacity:1"/></linearGradient><linearGradient id="f" x1="0" x2="1" y1="0" y2="-.151" gradientTransform="matrix(112.652 -22.9876 37.1603 182.107 395.708 410.882)" gradientUnits="userSpaceOnUse"><stop offset="0" style="stop-color:#7cd129;stop-opacity:1"/><stop offset="1" style="stop-color:#579f27;stop-opacity:1"/></linearGradient><linearGradient id="g" x1="0" x2="1" y1="0" y2="-.245" gradientTransform="matrix(-52.4462 34.2593 -60.3905 -92.4495 446.422 408.727)" gradientUnits="userSpaceOnUse"><stop offset="0" style="stop-color:#7ed429;stop-opacity:1"/><stop offset="1" style="stop-color:#529426;stop-opacity:1"/></linearGradient><radialGradient id="a" cx="0" cy="0" r="1" gradientTransform="matrix(38.674 14.282 -37.8796 102.574 364.046 347.116)" gradientUnits="userSpaceOnUse"><stop offset="0" style="stop-color:#5d9a0d;stop-opacity:1"/><stop offset=".46" style="stop-color:#6cb722;stop-opacity:1"/><stop offset="1" style="stop-color:#70bf28;stop-opacity:1"/></radialGradient><radialGradient id="e" cx="0" cy="0" r="1" gradientTransform="matrix(-97.4379 13.5382 -11.9118 -110.742 385.678 386.351)" gradientUnits="userSpaceOnUse"><stop offset="0" style="stop-color:#bde529;stop-opacity:1"/><stop offset=".55" style="stop-color:#84c317;stop-opacity:1"/><stop offset="1" style="stop-color:#6db50f;stop-opacity:1"/></radialGradient></defs></svg>