<svg xmlns="http://www.w3.org/2000/svg" xml:space="preserve" style="fill-rule:evenodd;clip-rule:evenodd;stroke-linejoin:round;stroke-miterlimit:2" viewBox="0 0 1118 289"><path d="M200.327 14.531c.976-.436 5.546-9.424 7.391-11 1.459-1.247 8.977 4.46 7.641 6.168-2.607 3.338-7.175 12.328-7.79 16.416-.243 1.621 5.2 8.486 18.518 17.961.533.38-.052.843-.431 1.458-.499.808-2.009 2.96-2.336 2.761-16.466-10.015-18.596-15.949-19.765-15.167-1.49.997-4.557 10.225-6.148 16.057-1.118 4.097-13.564 4.619-11.229-1.724 3.817-10.364 6.093-17.86 10.161-25.707.791-1.525-5.56 1.23-19.481.084-.657-.055-.621-4.862.011-4.825 11.489.681 21.101-1.427 23.458-2.482Z" style="fill:url(#a)"/><path d="M171.012 55.243c-2.94.287 6.493-7.488 9.944-7.76 9.512-.747 16.862 1.51 22.434 3.718 3.827 1.516 11.962 11.507 8.088 10.147-20.941-7.349-27.954-7.323-40.466-6.105Z" style="fill:#7cbf25"/><path d="M179.375 18.363c.362.233.374 1.104.282 1.301-.262.559-.851.888-3.231 2.411-13.018 8.329-48.781 11.327-96.919 36.019-24.786 12.713-66.414 59.19-73.683 58.336-3.993-.47-7.299-2.536-5.143-9.761C37.864-17.959 132.151-12.005 179.375 18.363Z" style="fill:url(#b)"/><path d="M2.212 115.073c16.525-17.818 32.133-42.056 128.142-82.954 13.36-5.691 49.233-13.411 49.333-13.098.027.085.031.499-.04.666-14.026 33.181-25.289 42.3-44.142 55.827C103.439 98.522 6.006 122.689 2.212 115.073Z" style="fill:url(#c)"/><path d="M189.586 54.313c56.225 6.338 103.474 65.114 96.457 128.89-6.104 55.478-51.664 96.988-101.438 102.774-7.446.865-7.219 3.068-15.629 2.918-5.516-.097-10.154-3.685-15.325-5.117-50.776-14.06-88.229-68.251-81.861-126.133 7.017-63.776 58.48-110.017 117.796-103.332Z" style="fill:url(#d)"/><path d="M221.608 44.371c-.429.019-.405.707-.376.938.082.654.443 1.127 2.002 3.247 8.529 11.595 36.499 22.117 69.432 58.439 16.956 18.701 38.427 59.775 48.03 80.21.447.952 7.835.954 6.791-11.384-11.231-132.803-75.352-133.753-125.879-131.45Z" style="fill:url(#e)"/><path d="M340.998 187.694c12.685 2.223-29.484-71.83-67.019-105.468-24.84-22.261-52.531-37.934-52.683-37.619-.041.085-.083.432-.108.62-11.873 88.819 103.851 139.67 119.81 142.467Z" style="fill:url(#f)"/><path d="M408.226 221.794V74.103h26.469v125.401h65.254v22.29h-91.723ZM521.842 221.794V110.976h25.772v110.818h-25.772Zm12.886-126.479c-4.097 0-7.616-1.388-10.556-4.163-2.941-2.775-4.411-6.079-4.411-9.912 0-3.965 1.47-7.318 4.411-10.061 2.94-2.742 6.459-4.113 10.556-4.113 4.163 0 7.715 1.371 10.656 4.113 2.94 2.743 4.41 6.063 4.41 9.962s-1.47 7.236-4.41 10.011c-2.941 2.775-6.493 4.163-10.656 4.163ZM574.916 221.794V110.976h24.196l.992 26.636h-1.887c1.615-6.561 4.088-11.926 7.418-16.096 3.33-4.169 7.228-7.263 11.694-9.281a33.66 33.66 0 0 1 14.015-3.027c7.989 0 14.449 2.513 19.379 7.541 4.929 5.027 8.407 12.404 10.431 22.131h-3.092c1.536-6.597 4.138-12.096 7.807-16.495 3.668-4.4 8.033-7.696 13.094-9.889 5.061-2.192 10.46-3.288 16.198-3.288 6.648 0 12.627 1.447 17.937 4.342 5.311 2.894 9.511 7.144 12.603 12.749 3.091 5.605 4.637 12.524 4.637 20.757v74.738h-25.764v-70.781c0-6.853-1.878-11.874-5.634-15.061-3.757-3.186-8.275-4.78-13.557-4.78-4.146 0-7.735.893-10.765 2.677-3.031 1.785-5.36 4.251-6.988 7.397-1.628 3.147-2.443 6.804-2.443 10.972v69.576h-25.121V149.87c0-5.669-1.751-10.203-5.253-13.601-3.502-3.398-8-5.097-13.493-5.097-3.748 0-7.195.871-10.34 2.614-3.146 1.742-5.649 4.292-7.51 7.651-1.861 3.358-2.792 7.502-2.792 12.431v67.926h-25.762ZM806.604 224.03c-11.108 0-20.688-2.337-28.738-7.012-8.05-4.675-14.238-11.274-18.566-19.799-4.327-8.524-6.491-18.576-6.491-30.156 0-11.389 2.138-21.395 6.414-30.016 4.276-8.62 10.324-15.352 18.145-20.195 7.822-4.842 17.004-7.263 27.548-7.263 6.785 0 13.226 1.093 19.323 3.281 6.097 2.187 11.504 5.552 16.222 10.094 4.718 4.542 8.429 10.336 11.133 17.383 2.705 7.047 4.057 15.442 4.057 25.186v8.04h-90.677v-17.492h77.814l-12.037 5.193c0-6.269-.967-11.765-2.902-16.487-1.935-4.723-4.804-8.401-8.608-11.035-3.804-2.633-8.531-3.95-14.182-3.95s-10.463 1.338-14.436 4.014c-3.973 2.676-7.001 6.248-9.084 10.717-2.082 4.468-3.124 9.435-3.124 14.901v12.118c0 7.004 1.189 12.913 3.566 17.725 2.378 4.812 5.717 8.438 10.017 10.879 4.3 2.441 9.286 3.661 14.956 3.661 3.767 0 7.191-.538 10.271-1.615 3.081-1.077 5.731-2.686 7.951-4.825 2.221-2.14 3.918-4.784 5.092-7.932l23.67 4.9c-1.766 5.932-4.804 11.125-9.115 15.58-4.312 4.456-9.693 7.92-16.144 10.394-6.451 2.474-13.809 3.711-22.075 3.711ZM928.975 110.976v20.188h-62.929v-20.188h62.929ZM881.77 84.61h25.764v105.976c0 4.005.859 6.945 2.577 8.82s4.554 2.813 8.508 2.813c1.148 0 2.693-.138 4.634-.414 1.941-.277 3.508-.547 4.7-.811l4.059 19.884a50.004 50.004 0 0 1-8.666 1.861 69.717 69.717 0 0 1-8.576.549c-10.605 0-18.756-2.64-24.453-7.922-5.698-5.281-8.547-12.805-8.547-22.571V84.61ZM1000.67 110.976v20.188h-62.932v-20.188h62.932ZM953.463 84.61h25.763v105.976c0 4.005.859 6.945 2.577 8.82 1.719 1.875 4.554 2.813 8.508 2.813 1.148 0 2.693-.138 4.634-.414 1.941-.277 3.508-.547 4.7-.811l4.065 19.884a50.19 50.19 0 0 1-8.672 1.861 69.717 69.717 0 0 1-8.576.549c-10.605 0-18.756-2.64-24.453-7.922-5.698-5.281-8.546-12.805-8.546-22.571V84.61ZM1068.07 224.03c-11.11 0-20.69-2.337-28.74-7.012-8.05-4.675-14.24-11.274-18.57-19.799-4.32-8.524-6.49-18.576-6.49-30.156 0-11.389 2.14-21.395 6.42-30.016 4.27-8.62 10.32-15.352 18.14-20.195 7.82-4.842 17.01-7.263 27.55-7.263 6.79 0 13.23 1.093 19.32 3.281 6.1 2.187 11.51 5.552 16.23 10.094 4.71 4.542 8.43 10.336 11.13 17.383 2.7 7.047 4.06 15.442 4.06 25.186v8.04h-90.68v-17.492h77.81l-12.03 5.193c0-6.269-.97-11.765-2.91-16.487-1.93-4.723-4.8-8.401-8.6-11.035-3.81-2.633-8.54-3.95-14.19-3.95s-10.46 1.338-14.43 4.014c-3.97 2.676-7 6.248-9.09 10.717-2.08 4.468-3.12 9.435-3.12 14.901v12.118c0 7.004 1.19 12.913 3.57 17.725 2.37 4.812 5.71 8.438 10.01 10.879 4.3 2.441 9.29 3.661 14.96 3.661 3.77 0 7.19-.538 10.27-1.615 3.08-1.077 5.73-2.686 7.95-4.825 2.22-2.14 3.92-4.784 5.09-7.932l23.67 4.9c-1.76 5.932-4.8 11.125-9.11 15.58-4.31 4.456-9.69 7.92-16.15 10.394-6.45 2.474-13.8 3.711-22.07 3.711Z" style="fill:#5c9a2a;fill-rule:nonzero"/><defs><linearGradient id="b" x1="0" x2="1" y1="0" y2="-.037" gradientTransform="matrix(-67.0327 -109.248 150.814 -103.867 68.87 122.041)" gradientUnits="userSpaceOnUse"><stop offset="0" style="stop-color:#508a29;stop-opacity:1"/><stop offset="1" style="stop-color:#75bd2c;stop-opacity:1"/></linearGradient><linearGradient id="c" x1="0" x2="1" y1="0" y2="-.073" gradientTransform="matrix(31.7292 65.7635 -102.54 66.0636 70.847 60.718)" gradientUnits="userSpaceOnUse"><stop offset="0" style="stop-color:#508a29;stop-opacity:1"/><stop offset="1" style="stop-color:#75bd2c;stop-opacity:1"/></linearGradient><linearGradient id="e" x1="0" x2="1" y1="0" y2="-.219" gradientTransform="matrix(59.5779 -131.057 -116.763 -89.2428 286.59 177.765)" gradientUnits="userSpaceOnUse"><stop offset="0" style="stop-color:#508a29;stop-opacity:1"/><stop offset="1" style="stop-color:#75bd2c;stop-opacity:1"/></linearGradient><linearGradient id="f" x1="0" x2="1" y1="0" y2="-.245" gradientTransform="matrix(-40.4347 64.065 67.0765 91.8162 299.005 111.579)" gradientUnits="userSpaceOnUse"><stop offset="0" style="stop-color:#508a29;stop-opacity:1"/><stop offset="1" style="stop-color:#75bd2c;stop-opacity:1"/></linearGradient><radialGradient id="a" cx="0" cy="0" r="1" gradientTransform="matrix(36.8802 18.4257 -48.8698 97.8158 193.536 42.016)" gradientUnits="userSpaceOnUse"><stop offset="0" style="stop-color:#5d9a0d;stop-opacity:1"/><stop offset=".46" style="stop-color:#6cb722;stop-opacity:1"/><stop offset="1" style="stop-color:#70bf28;stop-opacity:1"/></radialGradient><radialGradient id="d" cx="0" cy="0" r="1" gradientTransform="scale(-128.76538) rotate(-.691 -42.82 128.626)" gradientUnits="userSpaceOnUse"><stop offset="0" style="stop-color:#bde529;stop-opacity:1"/><stop offset=".55" style="stop-color:#84c317;stop-opacity:1"/><stop offset="1" style="stop-color:#6db50f;stop-opacity:1"/></radialGradient></defs></svg>